<mxfile host="app.diagrams.net" modified="2024-03-29T21:29:30.361Z" agent="Mozilla/5.0 (Macintosh; Intel Mac OS X 10_15_7) AppleWebKit/537.36 (KHTML, like Gecko) Chrome/123.0.0.0 Safari/537.36" etag="bhOlABdzyOgBJVod_r9T" version="24.2.0" type="github">
  <diagram name="Page-1" id="MirYrZp3LG0mRQDym63V">
    <mxGraphModel dx="1754" dy="971" grid="1" gridSize="10" guides="1" tooltips="1" connect="1" arrows="1" fold="1" page="1" pageScale="1" pageWidth="1400" pageHeight="850" math="0" shadow="0">
      <root>
        <mxCell id="0" />
        <mxCell id="1" parent="0" />
        <mxCell id="8lkZ7jm5adAf8kvQQs7E-137" value="" style="rounded=1;whiteSpace=wrap;html=1;fillColor=#d5e8d4;strokeColor=#82b366;" vertex="1" parent="1">
          <mxGeometry x="830" y="480" width="90" height="270" as="geometry" />
        </mxCell>
        <mxCell id="8lkZ7jm5adAf8kvQQs7E-1" value="Web Crawler Design&amp;nbsp;" style="text;html=1;align=center;verticalAlign=middle;resizable=0;points=[];autosize=1;strokeColor=#82b366;fillColor=#d5e8d4;fontStyle=1;fontSize=14;" vertex="1" parent="1">
          <mxGeometry x="620" y="40" width="160" height="30" as="geometry" />
        </mxCell>
        <mxCell id="8lkZ7jm5adAf8kvQQs7E-2" value="&lt;b&gt;Requirements&amp;nbsp;&lt;/b&gt;&lt;div&gt;1. We want to download HTML pages, not images, or videos, but&amp;nbsp;&lt;/div&gt;&lt;div&gt;&amp;nbsp; &amp;nbsp; we can make our system extensible&amp;nbsp;&lt;/div&gt;&lt;div&gt;2. We want the system to be polite and not bombard serves with&lt;/div&gt;&lt;div&gt;&amp;nbsp; &amp;nbsp; too many requests&amp;nbsp;&amp;nbsp;&lt;/div&gt;&lt;div&gt;&lt;br&gt;&lt;/div&gt;&lt;div&gt;&lt;b&gt;Back of the envelop estimations&amp;nbsp;&lt;/b&gt;&lt;div&gt;We want to download 1 Billions websites per month&amp;nbsp;&lt;/div&gt;&lt;div&gt;QPS: 1000000000 / 30 days / 24 hours / 3600 s = ~ 400&lt;/div&gt;&lt;div&gt;Peak QPS: 2 * QPS = 800&amp;nbsp;&lt;/div&gt;&lt;/div&gt;&lt;div&gt;Assuming each web page is 500KB&amp;nbsp;&lt;/div&gt;&lt;div&gt;1000000000 * 500 = 500TB storage&amp;nbsp;&lt;/div&gt;&lt;div&gt;For 5 years: 500 * 12 * 5 = 30PB storage&amp;nbsp;&lt;/div&gt;" style="text;html=1;align=left;verticalAlign=middle;resizable=0;points=[];autosize=1;strokeColor=#d6b656;fillColor=#fff2cc;" vertex="1" parent="1">
          <mxGeometry x="40" y="85" width="370" height="200" as="geometry" />
        </mxCell>
        <mxCell id="8lkZ7jm5adAf8kvQQs7E-30" value="" style="group" vertex="1" connectable="0" parent="1">
          <mxGeometry x="20" y="340" width="620" height="480" as="geometry" />
        </mxCell>
        <mxCell id="8lkZ7jm5adAf8kvQQs7E-6" value="" style="edgeStyle=orthogonalEdgeStyle;rounded=0;orthogonalLoop=1;jettySize=auto;html=1;" edge="1" parent="8lkZ7jm5adAf8kvQQs7E-30" source="8lkZ7jm5adAf8kvQQs7E-4" target="8lkZ7jm5adAf8kvQQs7E-5">
          <mxGeometry relative="1" as="geometry" />
        </mxCell>
        <mxCell id="8lkZ7jm5adAf8kvQQs7E-4" value="seed URLs" style="whiteSpace=wrap;html=1;" vertex="1" parent="8lkZ7jm5adAf8kvQQs7E-30">
          <mxGeometry y="96" width="94.17721518987342" height="48" as="geometry" />
        </mxCell>
        <mxCell id="8lkZ7jm5adAf8kvQQs7E-8" value="" style="edgeStyle=orthogonalEdgeStyle;rounded=0;orthogonalLoop=1;jettySize=auto;html=1;" edge="1" parent="8lkZ7jm5adAf8kvQQs7E-30" source="8lkZ7jm5adAf8kvQQs7E-5" target="8lkZ7jm5adAf8kvQQs7E-7">
          <mxGeometry relative="1" as="geometry" />
        </mxCell>
        <mxCell id="8lkZ7jm5adAf8kvQQs7E-5" value="URL frontier" style="whiteSpace=wrap;html=1;" vertex="1" parent="8lkZ7jm5adAf8kvQQs7E-30">
          <mxGeometry x="133.41772151898735" y="96" width="94.17721518987342" height="48" as="geometry" />
        </mxCell>
        <mxCell id="8lkZ7jm5adAf8kvQQs7E-10" value="" style="edgeStyle=orthogonalEdgeStyle;rounded=0;orthogonalLoop=1;jettySize=auto;html=1;" edge="1" parent="8lkZ7jm5adAf8kvQQs7E-30" source="8lkZ7jm5adAf8kvQQs7E-7" target="8lkZ7jm5adAf8kvQQs7E-9">
          <mxGeometry relative="1" as="geometry" />
        </mxCell>
        <mxCell id="8lkZ7jm5adAf8kvQQs7E-12" value="" style="edgeStyle=orthogonalEdgeStyle;rounded=0;orthogonalLoop=1;jettySize=auto;html=1;" edge="1" parent="8lkZ7jm5adAf8kvQQs7E-30" source="8lkZ7jm5adAf8kvQQs7E-7" target="8lkZ7jm5adAf8kvQQs7E-11">
          <mxGeometry relative="1" as="geometry" />
        </mxCell>
        <mxCell id="8lkZ7jm5adAf8kvQQs7E-7" value="HTML downloader&amp;nbsp;" style="whiteSpace=wrap;html=1;" vertex="1" parent="8lkZ7jm5adAf8kvQQs7E-30">
          <mxGeometry x="258.98734177215186" y="96" width="94.17721518987342" height="48" as="geometry" />
        </mxCell>
        <mxCell id="8lkZ7jm5adAf8kvQQs7E-9" value="DNS resolver" style="whiteSpace=wrap;html=1;" vertex="1" parent="8lkZ7jm5adAf8kvQQs7E-30">
          <mxGeometry x="258.98734177215186" y="16" width="94.17721518987342" height="48" as="geometry" />
        </mxCell>
        <mxCell id="8lkZ7jm5adAf8kvQQs7E-14" value="" style="edgeStyle=orthogonalEdgeStyle;rounded=0;orthogonalLoop=1;jettySize=auto;html=1;" edge="1" parent="8lkZ7jm5adAf8kvQQs7E-30" source="8lkZ7jm5adAf8kvQQs7E-11" target="8lkZ7jm5adAf8kvQQs7E-13">
          <mxGeometry relative="1" as="geometry" />
        </mxCell>
        <mxCell id="8lkZ7jm5adAf8kvQQs7E-11" value="parse content" style="whiteSpace=wrap;html=1;" vertex="1" parent="8lkZ7jm5adAf8kvQQs7E-30">
          <mxGeometry x="392.40506329113924" y="96" width="94.17721518987342" height="48" as="geometry" />
        </mxCell>
        <mxCell id="8lkZ7jm5adAf8kvQQs7E-19" value="" style="edgeStyle=orthogonalEdgeStyle;rounded=0;orthogonalLoop=1;jettySize=auto;html=1;" edge="1" parent="8lkZ7jm5adAf8kvQQs7E-30" source="8lkZ7jm5adAf8kvQQs7E-13" target="8lkZ7jm5adAf8kvQQs7E-18">
          <mxGeometry relative="1" as="geometry" />
        </mxCell>
        <mxCell id="8lkZ7jm5adAf8kvQQs7E-22" value="" style="edgeStyle=orthogonalEdgeStyle;rounded=0;orthogonalLoop=1;jettySize=auto;html=1;" edge="1" parent="8lkZ7jm5adAf8kvQQs7E-30" source="8lkZ7jm5adAf8kvQQs7E-13" target="8lkZ7jm5adAf8kvQQs7E-17">
          <mxGeometry relative="1" as="geometry" />
        </mxCell>
        <mxCell id="8lkZ7jm5adAf8kvQQs7E-13" value="Content seen?" style="whiteSpace=wrap;html=1;" vertex="1" parent="8lkZ7jm5adAf8kvQQs7E-30">
          <mxGeometry x="525.8227848101266" y="96" width="94.17721518987342" height="48" as="geometry" />
        </mxCell>
        <mxCell id="8lkZ7jm5adAf8kvQQs7E-17" value="Content&lt;div&gt;Storage&lt;/div&gt;" style="shape=cylinder3;whiteSpace=wrap;html=1;boundedLbl=1;backgroundOutline=1;size=15;" vertex="1" parent="8lkZ7jm5adAf8kvQQs7E-30">
          <mxGeometry x="549.367088607595" width="47.08860759493671" height="64" as="geometry" />
        </mxCell>
        <mxCell id="8lkZ7jm5adAf8kvQQs7E-21" value="" style="edgeStyle=orthogonalEdgeStyle;rounded=0;orthogonalLoop=1;jettySize=auto;html=1;" edge="1" parent="8lkZ7jm5adAf8kvQQs7E-30" source="8lkZ7jm5adAf8kvQQs7E-18" target="8lkZ7jm5adAf8kvQQs7E-20">
          <mxGeometry relative="1" as="geometry" />
        </mxCell>
        <mxCell id="8lkZ7jm5adAf8kvQQs7E-18" value="link extractor" style="whiteSpace=wrap;html=1;" vertex="1" parent="8lkZ7jm5adAf8kvQQs7E-30">
          <mxGeometry x="525.8227848101266" y="176" width="94.17721518987342" height="48" as="geometry" />
        </mxCell>
        <mxCell id="8lkZ7jm5adAf8kvQQs7E-24" value="" style="edgeStyle=orthogonalEdgeStyle;rounded=0;orthogonalLoop=1;jettySize=auto;html=1;" edge="1" parent="8lkZ7jm5adAf8kvQQs7E-30" source="8lkZ7jm5adAf8kvQQs7E-20" target="8lkZ7jm5adAf8kvQQs7E-23">
          <mxGeometry relative="1" as="geometry" />
        </mxCell>
        <mxCell id="8lkZ7jm5adAf8kvQQs7E-20" value="URL Filter" style="whiteSpace=wrap;html=1;" vertex="1" parent="8lkZ7jm5adAf8kvQQs7E-30">
          <mxGeometry x="525.8227848101266" y="256" width="94.17721518987342" height="48" as="geometry" />
        </mxCell>
        <mxCell id="8lkZ7jm5adAf8kvQQs7E-26" value="" style="edgeStyle=orthogonalEdgeStyle;rounded=0;orthogonalLoop=1;jettySize=auto;html=1;" edge="1" parent="8lkZ7jm5adAf8kvQQs7E-30" source="8lkZ7jm5adAf8kvQQs7E-23">
          <mxGeometry relative="1" as="geometry">
            <mxPoint x="572.9113924050632" y="416" as="targetPoint" />
          </mxGeometry>
        </mxCell>
        <mxCell id="8lkZ7jm5adAf8kvQQs7E-23" value="URL seen?&amp;nbsp;" style="whiteSpace=wrap;html=1;" vertex="1" parent="8lkZ7jm5adAf8kvQQs7E-30">
          <mxGeometry x="525.8227848101266" y="336" width="94.17721518987342" height="48" as="geometry" />
        </mxCell>
        <mxCell id="8lkZ7jm5adAf8kvQQs7E-29" value="" style="edgeStyle=orthogonalEdgeStyle;rounded=0;orthogonalLoop=1;jettySize=auto;html=1;entryX=0.5;entryY=1;entryDx=0;entryDy=0;" edge="1" parent="8lkZ7jm5adAf8kvQQs7E-30" source="8lkZ7jm5adAf8kvQQs7E-27" target="8lkZ7jm5adAf8kvQQs7E-5">
          <mxGeometry relative="1" as="geometry">
            <mxPoint x="117.72151898734177" y="448" as="targetPoint" />
          </mxGeometry>
        </mxCell>
        <mxCell id="8lkZ7jm5adAf8kvQQs7E-27" value="URL&lt;div&gt;Storage&lt;/div&gt;" style="shape=cylinder3;whiteSpace=wrap;html=1;boundedLbl=1;backgroundOutline=1;size=15;" vertex="1" parent="8lkZ7jm5adAf8kvQQs7E-30">
          <mxGeometry x="549.367088607595" y="416" width="47.08860759493671" height="64" as="geometry" />
        </mxCell>
        <mxCell id="8lkZ7jm5adAf8kvQQs7E-33" value="Simple Design&amp;nbsp;" style="text;html=1;align=center;verticalAlign=middle;resizable=0;points=[];autosize=1;strokeColor=#6c8ebf;fillColor=#dae8fc;" vertex="1" parent="8lkZ7jm5adAf8kvQQs7E-30">
          <mxGeometry x="94.18" y="16" width="100" height="30" as="geometry" />
        </mxCell>
        <mxCell id="8lkZ7jm5adAf8kvQQs7E-34" value="&lt;b&gt;Steps&lt;/b&gt;&lt;div&gt;1. Seed URL is the starting point. We should choose a good starting point for the seed URLs&lt;/div&gt;&lt;div&gt;2. URL Frontier is the service that handles the URL that needs to be downloaded&amp;nbsp;&lt;/div&gt;&lt;div&gt;3. HTML downloader talks with DNS resolver to get the IP Address of the site before downloading it&lt;/div&gt;&lt;div&gt;4. The content parser parses the content of the site, in our case we care about HTML&amp;nbsp;&lt;/div&gt;&lt;div&gt;5. We check if the content is seen before? if Yes, we discard it, otherwise we store it&amp;nbsp;&lt;/div&gt;&lt;div&gt;6. We then extract the links&amp;nbsp;&lt;/div&gt;&lt;div&gt;7. The extracted links to be filtered for blocklisted links or malicious links.&amp;nbsp;&lt;/div&gt;&lt;div&gt;8. The URLs are checked if they been seen before, if yes, we discard them, otherwise we&amp;nbsp;&lt;/div&gt;&lt;div&gt;&amp;nbsp; &amp;nbsp; store them in URL storage and send them to the URL frontier to be prepared for downloading.&amp;nbsp;&lt;/div&gt;&lt;div&gt;&lt;br&gt;&lt;/div&gt;" style="text;html=1;align=left;verticalAlign=middle;resizable=0;points=[];autosize=1;strokeColor=#6c8ebf;fillColor=#dae8fc;" vertex="1" parent="1">
          <mxGeometry x="425" y="85" width="550" height="170" as="geometry" />
        </mxCell>
        <mxCell id="8lkZ7jm5adAf8kvQQs7E-35" value="&lt;b&gt;Design deep dive&lt;/b&gt;&lt;div&gt;We can think of websites and how they are linked&amp;nbsp;&lt;span style=&quot;background-color: initial;&quot;&gt;together&amp;nbsp;&lt;/span&gt;&lt;/div&gt;&lt;div&gt;&lt;span style=&quot;background-color: initial;&quot;&gt;as a&amp;nbsp;&lt;/span&gt;&lt;span style=&quot;background-color: initial;&quot;&gt;graph.&amp;nbsp;&lt;/span&gt;&lt;span style=&quot;background-color: initial;&quot;&gt;So, we have 2 options of crawling&amp;nbsp;&lt;/span&gt;&lt;span style=&quot;background-color: initial;&quot;&gt;them.&amp;nbsp;&lt;/span&gt;&lt;span style=&quot;background-color: initial;&quot;&gt;Either&amp;nbsp;&lt;/span&gt;&lt;/div&gt;&lt;div&gt;&lt;span style=&quot;background-color: initial;&quot;&gt;using DFS&amp;nbsp;&lt;/span&gt;&lt;span style=&quot;background-color: initial;&quot;&gt;or BFS.&amp;nbsp;&lt;/span&gt;&lt;span style=&quot;background-color: initial;&quot;&gt;The clear winner here is&amp;nbsp;&lt;/span&gt;&lt;span style=&quot;background-color: initial;&quot;&gt;using BFS,&amp;nbsp;&lt;/span&gt;&lt;/div&gt;&lt;div&gt;&lt;span style=&quot;background-color: initial;&quot;&gt;because DFS can&amp;nbsp;&lt;/span&gt;&lt;span style=&quot;background-color: initial;&quot;&gt;go as deep&amp;nbsp;&lt;/span&gt;&lt;span style=&quot;background-color: initial;&quot;&gt;and could cause one&amp;nbsp;&lt;/span&gt;&lt;span style=&quot;background-color: initial;&quot;&gt;of the&amp;nbsp;&lt;/span&gt;&lt;/div&gt;&lt;div&gt;&lt;span style=&quot;background-color: initial;&quot;&gt;servers to go down.&lt;/span&gt;&lt;span style=&quot;background-color: initial;&quot;&gt;Also,&amp;nbsp;&lt;/span&gt;&lt;span style=&quot;background-color: initial;&quot;&gt;we can just say we are using BFS&amp;nbsp;&lt;/span&gt;&lt;/div&gt;&lt;div&gt;&lt;span style=&quot;background-color: initial;&quot;&gt;without thinking about&amp;nbsp;&lt;/span&gt;&lt;span style=&quot;background-color: initial;&quot;&gt;priority&amp;nbsp;&lt;/span&gt;&lt;span style=&quot;background-color: initial;&quot;&gt;of which sites to process first.&amp;nbsp;&lt;/span&gt;&lt;/div&gt;&lt;div&gt;&lt;b style=&quot;background-color: initial;&quot;&gt;URL Frontier Design&amp;nbsp;&lt;/b&gt;&lt;br&gt;&lt;/div&gt;&lt;div&gt;Front queue: manages prioritization&amp;nbsp;&lt;/div&gt;&lt;div&gt;Back queue: manages politeness&amp;nbsp;&lt;/div&gt;" style="text;html=1;align=left;verticalAlign=middle;resizable=0;points=[];autosize=1;strokeColor=#b85450;fillColor=#f8cecc;" vertex="1" parent="1">
          <mxGeometry x="650" y="265" width="340" height="160" as="geometry" />
        </mxCell>
        <mxCell id="8lkZ7jm5adAf8kvQQs7E-120" value="" style="group" vertex="1" connectable="0" parent="1">
          <mxGeometry x="1010" y="90" width="370" height="680" as="geometry" />
        </mxCell>
        <mxCell id="8lkZ7jm5adAf8kvQQs7E-36" value="Prioritizer" style="rounded=0;whiteSpace=wrap;html=1;" vertex="1" parent="8lkZ7jm5adAf8kvQQs7E-120">
          <mxGeometry x="76.70731707317073" width="108.29268292682927" height="38.52691218130312" as="geometry" />
        </mxCell>
        <mxCell id="8lkZ7jm5adAf8kvQQs7E-48" value="" style="group" vertex="1" connectable="0" parent="8lkZ7jm5adAf8kvQQs7E-120">
          <mxGeometry y="57.79036827195468" width="63.170731707317074" height="125.21246458923513" as="geometry" />
        </mxCell>
        <mxCell id="8lkZ7jm5adAf8kvQQs7E-49" value="" style="group" vertex="1" connectable="0" parent="8lkZ7jm5adAf8kvQQs7E-48">
          <mxGeometry y="28.89518413597734" width="63.170731707317074" height="96.3172804532578" as="geometry" />
        </mxCell>
        <mxCell id="8lkZ7jm5adAf8kvQQs7E-50" value="" style="rounded=0;whiteSpace=wrap;html=1;" vertex="1" parent="8lkZ7jm5adAf8kvQQs7E-49">
          <mxGeometry width="63.170731707317074" height="19.26345609065156" as="geometry" />
        </mxCell>
        <mxCell id="8lkZ7jm5adAf8kvQQs7E-51" value="" style="rounded=0;whiteSpace=wrap;html=1;" vertex="1" parent="8lkZ7jm5adAf8kvQQs7E-49">
          <mxGeometry y="19.26345609065156" width="63.170731707317074" height="19.26345609065156" as="geometry" />
        </mxCell>
        <mxCell id="8lkZ7jm5adAf8kvQQs7E-52" value="" style="rounded=0;whiteSpace=wrap;html=1;" vertex="1" parent="8lkZ7jm5adAf8kvQQs7E-49">
          <mxGeometry y="38.52691218130312" width="63.170731707317074" height="19.26345609065156" as="geometry" />
        </mxCell>
        <mxCell id="8lkZ7jm5adAf8kvQQs7E-53" value="" style="rounded=0;whiteSpace=wrap;html=1;" vertex="1" parent="8lkZ7jm5adAf8kvQQs7E-49">
          <mxGeometry y="57.79036827195468" width="63.170731707317074" height="19.26345609065156" as="geometry" />
        </mxCell>
        <mxCell id="8lkZ7jm5adAf8kvQQs7E-54" value="" style="rounded=0;whiteSpace=wrap;html=1;" vertex="1" parent="8lkZ7jm5adAf8kvQQs7E-49">
          <mxGeometry y="77.05382436260624" width="63.170731707317074" height="19.26345609065156" as="geometry" />
        </mxCell>
        <mxCell id="8lkZ7jm5adAf8kvQQs7E-55" value="f1" style="text;html=1;align=center;verticalAlign=middle;resizable=0;points=[];autosize=1;strokeColor=none;fillColor=none;" vertex="1" parent="8lkZ7jm5adAf8kvQQs7E-48">
          <mxGeometry x="18.04878048780488" width="30" height="30" as="geometry" />
        </mxCell>
        <mxCell id="8lkZ7jm5adAf8kvQQs7E-56" value="" style="group" vertex="1" connectable="0" parent="8lkZ7jm5adAf8kvQQs7E-120">
          <mxGeometry x="198.53658536585365" y="57.79036827195468" width="63.170731707317074" height="125.21246458923513" as="geometry" />
        </mxCell>
        <mxCell id="8lkZ7jm5adAf8kvQQs7E-57" value="" style="group" vertex="1" connectable="0" parent="8lkZ7jm5adAf8kvQQs7E-56">
          <mxGeometry y="28.89518413597734" width="63.170731707317074" height="96.3172804532578" as="geometry" />
        </mxCell>
        <mxCell id="8lkZ7jm5adAf8kvQQs7E-58" value="" style="rounded=0;whiteSpace=wrap;html=1;" vertex="1" parent="8lkZ7jm5adAf8kvQQs7E-57">
          <mxGeometry width="63.170731707317074" height="19.26345609065156" as="geometry" />
        </mxCell>
        <mxCell id="8lkZ7jm5adAf8kvQQs7E-59" value="" style="rounded=0;whiteSpace=wrap;html=1;" vertex="1" parent="8lkZ7jm5adAf8kvQQs7E-57">
          <mxGeometry y="19.26345609065156" width="63.170731707317074" height="19.26345609065156" as="geometry" />
        </mxCell>
        <mxCell id="8lkZ7jm5adAf8kvQQs7E-60" value="" style="rounded=0;whiteSpace=wrap;html=1;" vertex="1" parent="8lkZ7jm5adAf8kvQQs7E-57">
          <mxGeometry y="38.52691218130312" width="63.170731707317074" height="19.26345609065156" as="geometry" />
        </mxCell>
        <mxCell id="8lkZ7jm5adAf8kvQQs7E-61" value="" style="rounded=0;whiteSpace=wrap;html=1;" vertex="1" parent="8lkZ7jm5adAf8kvQQs7E-57">
          <mxGeometry y="57.79036827195468" width="63.170731707317074" height="19.26345609065156" as="geometry" />
        </mxCell>
        <mxCell id="8lkZ7jm5adAf8kvQQs7E-62" value="" style="rounded=0;whiteSpace=wrap;html=1;" vertex="1" parent="8lkZ7jm5adAf8kvQQs7E-57">
          <mxGeometry y="77.05382436260624" width="63.170731707317074" height="19.26345609065156" as="geometry" />
        </mxCell>
        <mxCell id="8lkZ7jm5adAf8kvQQs7E-63" value="f3" style="text;html=1;align=center;verticalAlign=middle;resizable=0;points=[];autosize=1;strokeColor=none;fillColor=none;" vertex="1" parent="8lkZ7jm5adAf8kvQQs7E-56">
          <mxGeometry x="18.04878048780488" width="30" height="30" as="geometry" />
        </mxCell>
        <mxCell id="8lkZ7jm5adAf8kvQQs7E-64" value="" style="endArrow=classic;html=1;rounded=0;exitX=0.5;exitY=1;exitDx=0;exitDy=0;entryX=0.629;entryY=-0.3;entryDx=0;entryDy=0;entryPerimeter=0;" edge="1" parent="8lkZ7jm5adAf8kvQQs7E-120" source="8lkZ7jm5adAf8kvQQs7E-36" target="8lkZ7jm5adAf8kvQQs7E-50">
          <mxGeometry width="50" height="50" relative="1" as="geometry">
            <mxPoint x="-63.170731707317074" y="134.8441926345609" as="sourcePoint" />
            <mxPoint x="-18.04878048780488" y="86.68555240793201" as="targetPoint" />
          </mxGeometry>
        </mxCell>
        <mxCell id="8lkZ7jm5adAf8kvQQs7E-65" value="" style="endArrow=classic;html=1;rounded=0;exitX=0.5;exitY=1;exitDx=0;exitDy=0;entryX=0.5;entryY=0;entryDx=0;entryDy=0;" edge="1" parent="8lkZ7jm5adAf8kvQQs7E-120" source="8lkZ7jm5adAf8kvQQs7E-36" target="8lkZ7jm5adAf8kvQQs7E-37">
          <mxGeometry width="50" height="50" relative="1" as="geometry">
            <mxPoint x="132.65853658536585" y="51.04815864022663" as="sourcePoint" />
            <mxPoint x="130.85365853658536" y="57.79036827195468" as="targetPoint" />
          </mxGeometry>
        </mxCell>
        <mxCell id="8lkZ7jm5adAf8kvQQs7E-44" value="" style="group" vertex="1" connectable="0" parent="8lkZ7jm5adAf8kvQQs7E-120">
          <mxGeometry x="99.26829268292683" y="86.68555240793201" width="63.170731707317074" height="96.3172804532578" as="geometry" />
        </mxCell>
        <mxCell id="8lkZ7jm5adAf8kvQQs7E-37" value="" style="rounded=0;whiteSpace=wrap;html=1;" vertex="1" parent="8lkZ7jm5adAf8kvQQs7E-44">
          <mxGeometry width="63.170731707317074" height="19.26345609065156" as="geometry" />
        </mxCell>
        <mxCell id="8lkZ7jm5adAf8kvQQs7E-38" value="" style="rounded=0;whiteSpace=wrap;html=1;" vertex="1" parent="8lkZ7jm5adAf8kvQQs7E-44">
          <mxGeometry y="19.26345609065156" width="63.170731707317074" height="19.26345609065156" as="geometry" />
        </mxCell>
        <mxCell id="8lkZ7jm5adAf8kvQQs7E-39" value="" style="rounded=0;whiteSpace=wrap;html=1;" vertex="1" parent="8lkZ7jm5adAf8kvQQs7E-44">
          <mxGeometry y="38.52691218130312" width="63.170731707317074" height="19.26345609065156" as="geometry" />
        </mxCell>
        <mxCell id="8lkZ7jm5adAf8kvQQs7E-40" value="" style="rounded=0;whiteSpace=wrap;html=1;" vertex="1" parent="8lkZ7jm5adAf8kvQQs7E-44">
          <mxGeometry y="57.79036827195468" width="63.170731707317074" height="19.26345609065156" as="geometry" />
        </mxCell>
        <mxCell id="8lkZ7jm5adAf8kvQQs7E-41" value="" style="rounded=0;whiteSpace=wrap;html=1;" vertex="1" parent="8lkZ7jm5adAf8kvQQs7E-44">
          <mxGeometry y="77.05382436260624" width="63.170731707317074" height="19.26345609065156" as="geometry" />
        </mxCell>
        <mxCell id="8lkZ7jm5adAf8kvQQs7E-45" value="f2" style="text;html=1;align=center;verticalAlign=middle;resizable=0;points=[];autosize=1;strokeColor=none;fillColor=none;" vertex="1" parent="8lkZ7jm5adAf8kvQQs7E-120">
          <mxGeometry x="99.26829268292683" y="57.79036827195468" width="30" height="30" as="geometry" />
        </mxCell>
        <mxCell id="8lkZ7jm5adAf8kvQQs7E-67" value="" style="endArrow=classic;html=1;rounded=0;entryX=0.234;entryY=1;entryDx=0;entryDy=0;exitX=0.5;exitY=1;exitDx=0;exitDy=0;entryPerimeter=0;" edge="1" parent="8lkZ7jm5adAf8kvQQs7E-120" source="8lkZ7jm5adAf8kvQQs7E-36" target="8lkZ7jm5adAf8kvQQs7E-63">
          <mxGeometry width="50" height="50" relative="1" as="geometry">
            <mxPoint x="135.3658536585366" y="48.1586402266289" as="sourcePoint" />
            <mxPoint x="184.09756097560975" y="96.3172804532578" as="targetPoint" />
          </mxGeometry>
        </mxCell>
        <mxCell id="8lkZ7jm5adAf8kvQQs7E-104" value="" style="edgeStyle=orthogonalEdgeStyle;rounded=0;orthogonalLoop=1;jettySize=auto;html=1;entryX=0.5;entryY=0;entryDx=0;entryDy=0;" edge="1" parent="8lkZ7jm5adAf8kvQQs7E-120" source="8lkZ7jm5adAf8kvQQs7E-68" target="8lkZ7jm5adAf8kvQQs7E-72">
          <mxGeometry relative="1" as="geometry" />
        </mxCell>
        <mxCell id="8lkZ7jm5adAf8kvQQs7E-68" value="Front queue selector" style="rounded=0;whiteSpace=wrap;html=1;" vertex="1" parent="8lkZ7jm5adAf8kvQQs7E-120">
          <mxGeometry x="76.70731707317073" y="221.52974504249292" width="108.29268292682927" height="38.52691218130312" as="geometry" />
        </mxCell>
        <mxCell id="8lkZ7jm5adAf8kvQQs7E-69" value="" style="endArrow=classic;html=1;rounded=0;entryX=0.25;entryY=0;entryDx=0;entryDy=0;exitX=0.5;exitY=1;exitDx=0;exitDy=0;" edge="1" parent="8lkZ7jm5adAf8kvQQs7E-120" source="8lkZ7jm5adAf8kvQQs7E-54" target="8lkZ7jm5adAf8kvQQs7E-68">
          <mxGeometry width="50" height="50" relative="1" as="geometry">
            <mxPoint x="-63.170731707317074" y="134.8441926345609" as="sourcePoint" />
            <mxPoint x="-18.04878048780488" y="86.68555240793201" as="targetPoint" />
          </mxGeometry>
        </mxCell>
        <mxCell id="8lkZ7jm5adAf8kvQQs7E-70" value="" style="endArrow=classic;html=1;rounded=0;entryX=0.5;entryY=0;entryDx=0;entryDy=0;exitX=0.5;exitY=1;exitDx=0;exitDy=0;" edge="1" parent="8lkZ7jm5adAf8kvQQs7E-120" source="8lkZ7jm5adAf8kvQQs7E-41" target="8lkZ7jm5adAf8kvQQs7E-68">
          <mxGeometry width="50" height="50" relative="1" as="geometry">
            <mxPoint x="126.34146341463415" y="183.0028328611898" as="sourcePoint" />
            <mxPoint x="139.8780487804878" y="231.1614730878187" as="targetPoint" />
          </mxGeometry>
        </mxCell>
        <mxCell id="8lkZ7jm5adAf8kvQQs7E-71" value="" style="endArrow=classic;html=1;rounded=0;entryX=0.75;entryY=0;entryDx=0;entryDy=0;" edge="1" parent="8lkZ7jm5adAf8kvQQs7E-120" target="8lkZ7jm5adAf8kvQQs7E-68">
          <mxGeometry width="50" height="50" relative="1" as="geometry">
            <mxPoint x="234.63414634146343" y="183.0028328611898" as="sourcePoint" />
            <mxPoint x="139.8780487804878" y="231.1614730878187" as="targetPoint" />
          </mxGeometry>
        </mxCell>
        <mxCell id="8lkZ7jm5adAf8kvQQs7E-106" value="" style="edgeStyle=orthogonalEdgeStyle;rounded=0;orthogonalLoop=1;jettySize=auto;html=1;" edge="1" parent="8lkZ7jm5adAf8kvQQs7E-120" source="8lkZ7jm5adAf8kvQQs7E-72" target="8lkZ7jm5adAf8kvQQs7E-105">
          <mxGeometry relative="1" as="geometry" />
        </mxCell>
        <mxCell id="8lkZ7jm5adAf8kvQQs7E-72" value="Back queue router" style="rounded=0;whiteSpace=wrap;html=1;" vertex="1" parent="8lkZ7jm5adAf8kvQQs7E-120">
          <mxGeometry x="76.70731707317073" y="298.5835694050992" width="108.29268292682927" height="38.52691218130312" as="geometry" />
        </mxCell>
        <mxCell id="8lkZ7jm5adAf8kvQQs7E-73" value="" style="group" vertex="1" connectable="0" parent="8lkZ7jm5adAf8kvQQs7E-120">
          <mxGeometry y="356.37393767705385" width="63.170731707317074" height="125.21246458923513" as="geometry" />
        </mxCell>
        <mxCell id="8lkZ7jm5adAf8kvQQs7E-74" value="" style="group" vertex="1" connectable="0" parent="8lkZ7jm5adAf8kvQQs7E-73">
          <mxGeometry y="28.89518413597734" width="63.170731707317074" height="96.3172804532578" as="geometry" />
        </mxCell>
        <mxCell id="8lkZ7jm5adAf8kvQQs7E-75" value="" style="rounded=0;whiteSpace=wrap;html=1;" vertex="1" parent="8lkZ7jm5adAf8kvQQs7E-74">
          <mxGeometry width="63.170731707317074" height="19.26345609065156" as="geometry" />
        </mxCell>
        <mxCell id="8lkZ7jm5adAf8kvQQs7E-76" value="" style="rounded=0;whiteSpace=wrap;html=1;" vertex="1" parent="8lkZ7jm5adAf8kvQQs7E-74">
          <mxGeometry y="19.26345609065156" width="63.170731707317074" height="19.26345609065156" as="geometry" />
        </mxCell>
        <mxCell id="8lkZ7jm5adAf8kvQQs7E-77" value="" style="rounded=0;whiteSpace=wrap;html=1;" vertex="1" parent="8lkZ7jm5adAf8kvQQs7E-74">
          <mxGeometry y="38.52691218130312" width="63.170731707317074" height="19.26345609065156" as="geometry" />
        </mxCell>
        <mxCell id="8lkZ7jm5adAf8kvQQs7E-78" value="" style="rounded=0;whiteSpace=wrap;html=1;" vertex="1" parent="8lkZ7jm5adAf8kvQQs7E-74">
          <mxGeometry y="57.79036827195468" width="63.170731707317074" height="19.26345609065156" as="geometry" />
        </mxCell>
        <mxCell id="8lkZ7jm5adAf8kvQQs7E-79" value="" style="rounded=0;whiteSpace=wrap;html=1;" vertex="1" parent="8lkZ7jm5adAf8kvQQs7E-74">
          <mxGeometry y="77.05382436260624" width="63.170731707317074" height="19.26345609065156" as="geometry" />
        </mxCell>
        <mxCell id="8lkZ7jm5adAf8kvQQs7E-80" value="b1" style="text;html=1;align=center;verticalAlign=middle;resizable=0;points=[];autosize=1;strokeColor=none;fillColor=none;" vertex="1" parent="8lkZ7jm5adAf8kvQQs7E-73">
          <mxGeometry x="13.536585365853659" width="40" height="30" as="geometry" />
        </mxCell>
        <mxCell id="8lkZ7jm5adAf8kvQQs7E-81" value="" style="group" vertex="1" connectable="0" parent="8lkZ7jm5adAf8kvQQs7E-120">
          <mxGeometry x="198.53658536585365" y="356.37393767705385" width="63.170731707317074" height="125.21246458923513" as="geometry" />
        </mxCell>
        <mxCell id="8lkZ7jm5adAf8kvQQs7E-82" value="" style="group" vertex="1" connectable="0" parent="8lkZ7jm5adAf8kvQQs7E-81">
          <mxGeometry y="28.89518413597734" width="63.170731707317074" height="96.3172804532578" as="geometry" />
        </mxCell>
        <mxCell id="8lkZ7jm5adAf8kvQQs7E-83" value="" style="rounded=0;whiteSpace=wrap;html=1;" vertex="1" parent="8lkZ7jm5adAf8kvQQs7E-82">
          <mxGeometry width="63.170731707317074" height="19.26345609065156" as="geometry" />
        </mxCell>
        <mxCell id="8lkZ7jm5adAf8kvQQs7E-84" value="" style="rounded=0;whiteSpace=wrap;html=1;" vertex="1" parent="8lkZ7jm5adAf8kvQQs7E-82">
          <mxGeometry y="19.26345609065156" width="63.170731707317074" height="19.26345609065156" as="geometry" />
        </mxCell>
        <mxCell id="8lkZ7jm5adAf8kvQQs7E-85" value="" style="rounded=0;whiteSpace=wrap;html=1;" vertex="1" parent="8lkZ7jm5adAf8kvQQs7E-82">
          <mxGeometry y="38.52691218130312" width="63.170731707317074" height="19.26345609065156" as="geometry" />
        </mxCell>
        <mxCell id="8lkZ7jm5adAf8kvQQs7E-86" value="" style="rounded=0;whiteSpace=wrap;html=1;" vertex="1" parent="8lkZ7jm5adAf8kvQQs7E-82">
          <mxGeometry y="57.79036827195468" width="63.170731707317074" height="19.26345609065156" as="geometry" />
        </mxCell>
        <mxCell id="8lkZ7jm5adAf8kvQQs7E-87" value="" style="rounded=0;whiteSpace=wrap;html=1;" vertex="1" parent="8lkZ7jm5adAf8kvQQs7E-82">
          <mxGeometry y="77.05382436260624" width="63.170731707317074" height="19.26345609065156" as="geometry" />
        </mxCell>
        <mxCell id="8lkZ7jm5adAf8kvQQs7E-88" value="b3" style="text;html=1;align=center;verticalAlign=middle;resizable=0;points=[];autosize=1;strokeColor=none;fillColor=none;" vertex="1" parent="8lkZ7jm5adAf8kvQQs7E-81">
          <mxGeometry x="13.536585365853659" width="40" height="30" as="geometry" />
        </mxCell>
        <mxCell id="8lkZ7jm5adAf8kvQQs7E-89" value="" style="endArrow=classic;html=1;rounded=0;exitX=0.5;exitY=1;exitDx=0;exitDy=0;entryX=0.629;entryY=-0.3;entryDx=0;entryDy=0;entryPerimeter=0;" edge="1" parent="8lkZ7jm5adAf8kvQQs7E-120" source="8lkZ7jm5adAf8kvQQs7E-72" target="8lkZ7jm5adAf8kvQQs7E-75">
          <mxGeometry width="50" height="50" relative="1" as="geometry">
            <mxPoint x="-63.170731707317074" y="433.4277620396601" as="sourcePoint" />
            <mxPoint x="-18.04878048780488" y="385.2691218130312" as="targetPoint" />
          </mxGeometry>
        </mxCell>
        <mxCell id="8lkZ7jm5adAf8kvQQs7E-90" value="" style="endArrow=classic;html=1;rounded=0;exitX=0.5;exitY=1;exitDx=0;exitDy=0;entryX=0.5;entryY=0;entryDx=0;entryDy=0;" edge="1" parent="8lkZ7jm5adAf8kvQQs7E-120" source="8lkZ7jm5adAf8kvQQs7E-72" target="8lkZ7jm5adAf8kvQQs7E-92">
          <mxGeometry width="50" height="50" relative="1" as="geometry">
            <mxPoint x="132.65853658536585" y="349.63172804532576" as="sourcePoint" />
            <mxPoint x="130.85365853658536" y="356.37393767705385" as="targetPoint" />
          </mxGeometry>
        </mxCell>
        <mxCell id="8lkZ7jm5adAf8kvQQs7E-91" value="" style="group" vertex="1" connectable="0" parent="8lkZ7jm5adAf8kvQQs7E-120">
          <mxGeometry x="99.26829268292683" y="385.2691218130312" width="63.170731707317074" height="96.3172804532578" as="geometry" />
        </mxCell>
        <mxCell id="8lkZ7jm5adAf8kvQQs7E-92" value="" style="rounded=0;whiteSpace=wrap;html=1;" vertex="1" parent="8lkZ7jm5adAf8kvQQs7E-91">
          <mxGeometry width="63.170731707317074" height="19.26345609065156" as="geometry" />
        </mxCell>
        <mxCell id="8lkZ7jm5adAf8kvQQs7E-93" value="" style="rounded=0;whiteSpace=wrap;html=1;" vertex="1" parent="8lkZ7jm5adAf8kvQQs7E-91">
          <mxGeometry y="19.26345609065156" width="63.170731707317074" height="19.26345609065156" as="geometry" />
        </mxCell>
        <mxCell id="8lkZ7jm5adAf8kvQQs7E-94" value="" style="rounded=0;whiteSpace=wrap;html=1;" vertex="1" parent="8lkZ7jm5adAf8kvQQs7E-91">
          <mxGeometry y="38.52691218130312" width="63.170731707317074" height="19.26345609065156" as="geometry" />
        </mxCell>
        <mxCell id="8lkZ7jm5adAf8kvQQs7E-95" value="" style="rounded=0;whiteSpace=wrap;html=1;" vertex="1" parent="8lkZ7jm5adAf8kvQQs7E-91">
          <mxGeometry y="57.79036827195468" width="63.170731707317074" height="19.26345609065156" as="geometry" />
        </mxCell>
        <mxCell id="8lkZ7jm5adAf8kvQQs7E-96" value="" style="rounded=0;whiteSpace=wrap;html=1;" vertex="1" parent="8lkZ7jm5adAf8kvQQs7E-91">
          <mxGeometry y="77.05382436260624" width="63.170731707317074" height="19.26345609065156" as="geometry" />
        </mxCell>
        <mxCell id="8lkZ7jm5adAf8kvQQs7E-97" value="b2" style="text;html=1;align=center;verticalAlign=middle;resizable=0;points=[];autosize=1;strokeColor=none;fillColor=none;" vertex="1" parent="8lkZ7jm5adAf8kvQQs7E-120">
          <mxGeometry x="94.75609756097562" y="356.37393767705385" width="40" height="30" as="geometry" />
        </mxCell>
        <mxCell id="8lkZ7jm5adAf8kvQQs7E-98" value="" style="endArrow=classic;html=1;rounded=0;entryX=0.234;entryY=1;entryDx=0;entryDy=0;exitX=0.5;exitY=1;exitDx=0;exitDy=0;entryPerimeter=0;" edge="1" parent="8lkZ7jm5adAf8kvQQs7E-120" source="8lkZ7jm5adAf8kvQQs7E-72" target="8lkZ7jm5adAf8kvQQs7E-88">
          <mxGeometry width="50" height="50" relative="1" as="geometry">
            <mxPoint x="135.3658536585366" y="346.74220963172803" as="sourcePoint" />
            <mxPoint x="184.09756097560975" y="394.90084985835693" as="targetPoint" />
          </mxGeometry>
        </mxCell>
        <mxCell id="8lkZ7jm5adAf8kvQQs7E-99" value="Back queue selector" style="rounded=0;whiteSpace=wrap;html=1;" vertex="1" parent="8lkZ7jm5adAf8kvQQs7E-120">
          <mxGeometry x="76.70731707317073" y="520.1133144475921" width="108.29268292682927" height="38.52691218130312" as="geometry" />
        </mxCell>
        <mxCell id="8lkZ7jm5adAf8kvQQs7E-100" value="" style="endArrow=classic;html=1;rounded=0;entryX=0.25;entryY=0;entryDx=0;entryDy=0;exitX=0.5;exitY=1;exitDx=0;exitDy=0;" edge="1" parent="8lkZ7jm5adAf8kvQQs7E-120" source="8lkZ7jm5adAf8kvQQs7E-79" target="8lkZ7jm5adAf8kvQQs7E-99">
          <mxGeometry width="50" height="50" relative="1" as="geometry">
            <mxPoint x="-63.170731707317074" y="433.4277620396601" as="sourcePoint" />
            <mxPoint x="-18.04878048780488" y="385.2691218130312" as="targetPoint" />
          </mxGeometry>
        </mxCell>
        <mxCell id="8lkZ7jm5adAf8kvQQs7E-101" value="" style="endArrow=classic;html=1;rounded=0;entryX=0.5;entryY=0;entryDx=0;entryDy=0;exitX=0.5;exitY=1;exitDx=0;exitDy=0;" edge="1" parent="8lkZ7jm5adAf8kvQQs7E-120" source="8lkZ7jm5adAf8kvQQs7E-96" target="8lkZ7jm5adAf8kvQQs7E-99">
          <mxGeometry width="50" height="50" relative="1" as="geometry">
            <mxPoint x="126.34146341463415" y="481.586402266289" as="sourcePoint" />
            <mxPoint x="139.8780487804878" y="529.7450424929178" as="targetPoint" />
          </mxGeometry>
        </mxCell>
        <mxCell id="8lkZ7jm5adAf8kvQQs7E-102" value="" style="endArrow=classic;html=1;rounded=0;entryX=0.75;entryY=0;entryDx=0;entryDy=0;" edge="1" parent="8lkZ7jm5adAf8kvQQs7E-120" target="8lkZ7jm5adAf8kvQQs7E-99">
          <mxGeometry width="50" height="50" relative="1" as="geometry">
            <mxPoint x="234.63414634146343" y="481.586402266289" as="sourcePoint" />
            <mxPoint x="139.8780487804878" y="529.7450424929178" as="targetPoint" />
          </mxGeometry>
        </mxCell>
        <mxCell id="8lkZ7jm5adAf8kvQQs7E-105" value="" style="whiteSpace=wrap;html=1;rounded=1;" vertex="1" parent="8lkZ7jm5adAf8kvQQs7E-120">
          <mxGeometry x="261.7073170731707" y="269.6883852691218" width="108.29268292682927" height="96.3172804532578" as="geometry" />
        </mxCell>
        <mxCell id="8lkZ7jm5adAf8kvQQs7E-107" value="" style="shape=cylinder3;whiteSpace=wrap;html=1;boundedLbl=1;backgroundOutline=1;size=15;strokeColor=#000000;fillColor=#99CCFF;" vertex="1" parent="8lkZ7jm5adAf8kvQQs7E-120">
          <mxGeometry x="293.2926829268293" y="279.3201133144476" width="45.1219512195122" height="57.79036827195468" as="geometry" />
        </mxCell>
        <mxCell id="8lkZ7jm5adAf8kvQQs7E-108" value="Mapping table" style="text;html=1;align=center;verticalAlign=middle;resizable=0;points=[];autosize=1;strokeColor=none;fillColor=none;" vertex="1" parent="8lkZ7jm5adAf8kvQQs7E-120">
          <mxGeometry x="270.7317073170732" y="337.1104815864023" width="100" height="30" as="geometry" />
        </mxCell>
        <mxCell id="8lkZ7jm5adAf8kvQQs7E-110" value="" style="sketch=0;pointerEvents=1;shadow=0;dashed=0;html=1;strokeColor=none;labelPosition=center;verticalLabelPosition=bottom;verticalAlign=top;outlineConnect=0;align=center;shape=mxgraph.office.servers.physical_host;fillColor=#009900;" vertex="1" parent="8lkZ7jm5adAf8kvQQs7E-120">
          <mxGeometry x="52.34146341463415" y="606.7988668555241" width="24.365853658536587" height="50.08498583569405" as="geometry" />
        </mxCell>
        <mxCell id="8lkZ7jm5adAf8kvQQs7E-111" value="" style="sketch=0;pointerEvents=1;shadow=0;dashed=0;html=1;strokeColor=none;labelPosition=center;verticalLabelPosition=bottom;verticalAlign=top;outlineConnect=0;align=center;shape=mxgraph.office.servers.physical_host;fillColor=#009900;" vertex="1" parent="8lkZ7jm5adAf8kvQQs7E-120">
          <mxGeometry x="118.67073170731707" y="606.7988668555241" width="24.365853658536587" height="50.08498583569405" as="geometry" />
        </mxCell>
        <mxCell id="8lkZ7jm5adAf8kvQQs7E-112" value="" style="sketch=0;pointerEvents=1;shadow=0;dashed=0;html=1;strokeColor=none;labelPosition=center;verticalLabelPosition=bottom;verticalAlign=top;outlineConnect=0;align=center;shape=mxgraph.office.servers.physical_host;fillColor=#009900;" vertex="1" parent="8lkZ7jm5adAf8kvQQs7E-120">
          <mxGeometry x="185" y="606.7988668555241" width="24.365853658536587" height="50.08498583569405" as="geometry" />
        </mxCell>
        <mxCell id="8lkZ7jm5adAf8kvQQs7E-113" value="" style="endArrow=classic;html=1;rounded=0;exitX=0.375;exitY=0.975;exitDx=0;exitDy=0;exitPerimeter=0;" edge="1" parent="8lkZ7jm5adAf8kvQQs7E-120" source="8lkZ7jm5adAf8kvQQs7E-99">
          <mxGeometry width="50" height="50" relative="1" as="geometry">
            <mxPoint x="109.19512195121952" y="551.8980169971671" as="sourcePoint" />
            <mxPoint x="65.8780487804878" y="607.5271194638292" as="targetPoint" />
          </mxGeometry>
        </mxCell>
        <mxCell id="8lkZ7jm5adAf8kvQQs7E-114" value="" style="endArrow=classic;html=1;rounded=0;exitX=0.5;exitY=1;exitDx=0;exitDy=0;" edge="1" parent="8lkZ7jm5adAf8kvQQs7E-120" source="8lkZ7jm5adAf8kvQQs7E-99" target="8lkZ7jm5adAf8kvQQs7E-111">
          <mxGeometry width="50" height="50" relative="1" as="geometry">
            <mxPoint x="126.34146341463415" y="567.3087818696883" as="sourcePoint" />
            <mxPoint x="74.90243902439025" y="617.158847509155" as="targetPoint" />
          </mxGeometry>
        </mxCell>
        <mxCell id="8lkZ7jm5adAf8kvQQs7E-115" value="" style="endArrow=classic;html=1;rounded=0;exitX=0.617;exitY=1.025;exitDx=0;exitDy=0;exitPerimeter=0;" edge="1" parent="8lkZ7jm5adAf8kvQQs7E-120" source="8lkZ7jm5adAf8kvQQs7E-99">
          <mxGeometry width="50" height="50" relative="1" as="geometry">
            <mxPoint x="139.8780487804878" y="576.9405099150142" as="sourcePoint" />
            <mxPoint x="198.53658536585365" y="605.8356940509915" as="targetPoint" />
          </mxGeometry>
        </mxCell>
        <mxCell id="8lkZ7jm5adAf8kvQQs7E-116" value="worker1" style="text;html=1;align=center;verticalAlign=middle;resizable=0;points=[];autosize=1;strokeColor=none;fillColor=none;" vertex="1" parent="8lkZ7jm5adAf8kvQQs7E-120">
          <mxGeometry x="31.585365853658537" y="651.1048158640227" width="70" height="30" as="geometry" />
        </mxCell>
        <mxCell id="8lkZ7jm5adAf8kvQQs7E-117" value="worker2" style="text;html=1;align=center;verticalAlign=middle;resizable=0;points=[];autosize=1;strokeColor=none;fillColor=none;" vertex="1" parent="8lkZ7jm5adAf8kvQQs7E-120">
          <mxGeometry x="99.26829268292683" y="651.1048158640227" width="70" height="30" as="geometry" />
        </mxCell>
        <mxCell id="8lkZ7jm5adAf8kvQQs7E-118" value="worker3" style="text;html=1;align=center;verticalAlign=middle;resizable=0;points=[];autosize=1;strokeColor=none;fillColor=none;" vertex="1" parent="8lkZ7jm5adAf8kvQQs7E-120">
          <mxGeometry x="165.59756097560975" y="651.1048158640227" width="70" height="30" as="geometry" />
        </mxCell>
        <mxCell id="8lkZ7jm5adAf8kvQQs7E-121" value="Distributed crawling" style="text;html=1;align=center;verticalAlign=middle;resizable=0;points=[];autosize=1;strokeColor=none;fillColor=none;fontStyle=1" vertex="1" parent="1">
          <mxGeometry x="670" y="450" width="130" height="30" as="geometry" />
        </mxCell>
        <mxCell id="8lkZ7jm5adAf8kvQQs7E-130" value="" style="edgeStyle=orthogonalEdgeStyle;rounded=0;orthogonalLoop=1;jettySize=auto;html=1;" edge="1" parent="1" source="8lkZ7jm5adAf8kvQQs7E-124" target="8lkZ7jm5adAf8kvQQs7E-127">
          <mxGeometry relative="1" as="geometry" />
        </mxCell>
        <mxCell id="8lkZ7jm5adAf8kvQQs7E-124" value="URL Frontier" style="whiteSpace=wrap;html=1;" vertex="1" parent="1">
          <mxGeometry x="710" y="580" width="90" height="40" as="geometry" />
        </mxCell>
        <mxCell id="8lkZ7jm5adAf8kvQQs7E-126" value="" style="sketch=0;pointerEvents=1;shadow=0;dashed=0;html=1;strokeColor=none;labelPosition=center;verticalLabelPosition=bottom;verticalAlign=top;outlineConnect=0;align=center;shape=mxgraph.office.servers.physical_host;fillColor=#333333;" vertex="1" parent="1">
          <mxGeometry x="860" y="490" width="27" height="52" as="geometry" />
        </mxCell>
        <mxCell id="8lkZ7jm5adAf8kvQQs7E-127" value="" style="sketch=0;pointerEvents=1;shadow=0;dashed=0;html=1;strokeColor=none;labelPosition=center;verticalLabelPosition=bottom;verticalAlign=top;outlineConnect=0;align=center;shape=mxgraph.office.servers.physical_host;fillColor=#333333;" vertex="1" parent="1">
          <mxGeometry x="860" y="574" width="27" height="52" as="geometry" />
        </mxCell>
        <mxCell id="8lkZ7jm5adAf8kvQQs7E-128" value="" style="sketch=0;pointerEvents=1;shadow=0;dashed=0;html=1;strokeColor=none;labelPosition=center;verticalLabelPosition=bottom;verticalAlign=top;outlineConnect=0;align=center;shape=mxgraph.office.servers.physical_host;fillColor=#333333;" vertex="1" parent="1">
          <mxGeometry x="860" y="650" width="27" height="52" as="geometry" />
        </mxCell>
        <mxCell id="8lkZ7jm5adAf8kvQQs7E-134" value="" style="endArrow=classic;html=1;rounded=0;" edge="1" parent="1" target="8lkZ7jm5adAf8kvQQs7E-126">
          <mxGeometry width="50" height="50" relative="1" as="geometry">
            <mxPoint x="800" y="600" as="sourcePoint" />
            <mxPoint x="850" y="550" as="targetPoint" />
          </mxGeometry>
        </mxCell>
        <mxCell id="8lkZ7jm5adAf8kvQQs7E-135" value="" style="endArrow=classic;html=1;rounded=0;exitX=1;exitY=0.5;exitDx=0;exitDy=0;" edge="1" parent="1" source="8lkZ7jm5adAf8kvQQs7E-124" target="8lkZ7jm5adAf8kvQQs7E-128">
          <mxGeometry width="50" height="50" relative="1" as="geometry">
            <mxPoint x="760" y="630" as="sourcePoint" />
            <mxPoint x="750" y="680" as="targetPoint" />
          </mxGeometry>
        </mxCell>
        <mxCell id="8lkZ7jm5adAf8kvQQs7E-136" value="HTML&amp;nbsp;&lt;div&gt;Downloaders&lt;/div&gt;" style="text;html=1;align=center;verticalAlign=middle;resizable=0;points=[];autosize=1;strokeColor=none;fillColor=none;" vertex="1" parent="1">
          <mxGeometry x="830" y="702" width="90" height="40" as="geometry" />
        </mxCell>
      </root>
    </mxGraphModel>
  </diagram>
</mxfile>
